<svg width="256" height="256" viewBox="0 0 256 256" fill="none" xmlns="http://www.w3.org/2000/svg">
<g clip-path="url(#clip0_201_2)">
<path d="M211 256H45C20.1 256 0 235.9 0 211V45C0 20.1 20.1 0 45 0H211C235.9 0 256 20.1 256 45V211C256 235.9 235.9 256 211 256Z" fill="#004656"/>
<path d="M132.943 234.992C131.986 235.949 130.339 236.427 128 236.427C98.0231 236.427 72.4575 225.85 51.3036 204.696C30.1497 183.542 19.5725 157.977 19.5725 128C19.5725 97.5978 30.3621 71.9259 51.9413 50.9846C73.5204 30.0432 99.8301 19.5725 130.87 19.5725C158.721 19.5725 183.277 28.1298 204.537 45.2443C225.797 62.3588 236.427 84.9479 236.427 113.011C236.427 130.87 231.431 144.53 221.439 153.991C211.447 163.452 198.372 168.182 182.214 168.182H158.934C149.154 168.182 141.075 171.902 134.697 179.344C128.319 186.785 125.13 195.395 125.13 205.175C125.13 213.892 126.671 219.526 129.754 222.077C132.837 224.628 134.378 227.392 134.378 230.368C134.378 232.494 133.9 234.036 132.943 234.992Z" fill="#1D2026"/>
<path d="M69.4503 119.825C69.4503 128.662 62.2869 135.825 53.4503 135.825C44.6138 135.825 37.4503 128.662 37.4503 119.825C37.4503 110.989 44.6138 103.825 53.4503 103.825C62.2869 103.825 69.4503 110.989 69.4503 119.825Z" fill="#61AFEF"/>
<path d="M109.994 65.6533C109.994 74.4899 102.831 81.6533 93.9943 81.6533C85.1577 81.6533 77.9943 74.4899 77.9943 65.6533C77.9943 56.8167 85.1577 49.6533 93.9943 49.6533C102.831 49.6533 109.994 56.8167 109.994 65.6533Z" fill="#C678DD"/>
<path d="M186.55 119.825C186.55 128.662 193.713 135.825 202.55 135.825C211.386 135.825 218.55 128.662 218.55 119.825C218.55 110.989 211.386 103.825 202.55 103.825C193.713 103.825 186.55 110.989 186.55 119.825Z" fill="#E06C75"/>
<path d="M146.006 65.6533C146.006 74.4899 153.169 81.6533 162.006 81.6533C170.842 81.6533 178.006 74.4899 178.006 65.6533C178.006 56.8167 170.842 49.6533 162.006 49.6533C153.169 49.6533 146.006 56.8167 146.006 65.6533Z" fill="#98C379"/>
</g>
<defs>
<clipPath id="clip0_201_2">
<rect width="256" height="256" fill="white"/>
</clipPath>
</defs>
</svg>
